<?xml version="1.0" encoding="utf-8"?>
<!-- Generator: Adobe Illustrator 21.0.0, SVG Export Plug-In . SVG Version: 6.00 Build 0)  -->
<svg version="1.1" id="Capa_1" xmlns="http://www.w3.org/2000/svg" xmlns:xlink="http://www.w3.org/1999/xlink" x="0px" y="0px"
	 viewBox="0 0 1366 768" enable-background="new 0 0 1366 768" xml:space="preserve">
<g>
	<path d="M175.738-376.778c-3.911-4.02-5.863-9.266-5.863-15.746v-195.987c0-6.476,1.843-11.501,5.528-15.076
		c3.686-3.57,8.763-5.36,15.244-5.36h117.592c13.621,0,20.437,5.811,20.437,17.421c0,11.391-6.816,17.086-20.437,17.086h-95.816
		v64.324h89.116c13.621,0,20.436,5.811,20.436,17.421c0,11.391-6.815,17.086-20.436,17.086h-89.116v83.085
		c0,6.48-1.9,11.727-5.695,15.746c-3.8,4.021-8.936,6.03-15.411,6.03C184.835-370.748,179.643-372.758,175.738-376.778z"/>
	<path d="M365.358-376.778c-3.911-4.02-5.863-9.266-5.863-15.746v-196.657c0-6.475,1.953-11.668,5.863-15.578
		c3.905-3.905,9.098-5.863,15.578-5.863c6.701,0,12.003,1.958,15.914,5.863c3.905,3.91,5.863,9.103,5.863,15.578v196.657
		c0,6.48-1.958,11.727-5.863,15.746c-3.91,4.021-9.213,6.03-15.914,6.03C374.456-370.748,369.263-372.758,365.358-376.778z"/>
	<path d="M647.442-604.76c3.685,3.91,5.527,9.103,5.527,15.578v196.657c0,6.48-1.9,11.727-5.695,15.746
		c-3.8,4.021-8.71,6.03-14.741,6.03c-7.15,0-12.621-2.564-16.416-7.705L493.835-537.588v145.064c0,6.48-1.79,11.727-5.36,15.746
		c-3.575,4.021-8.491,6.03-14.741,6.03c-6.255,0-11.171-2.01-14.741-6.03c-3.575-4.02-5.36-9.266-5.36-15.746v-196.657
		c0-6.475,1.895-11.668,5.695-15.578c3.795-3.905,8.821-5.863,15.076-5.863c6.92,0,12.281,2.57,16.081,7.705l121.948,158.465
		v-144.729c0-6.475,1.842-11.668,5.528-15.578c3.685-3.905,8.543-5.863,14.573-5.863
		C638.784-610.623,643.757-608.665,647.442-604.76z"/>
	<path d="M709.754-376.778c-3.91-4.02-5.862-9.266-5.862-15.746v-196.657c0-6.475,1.952-11.668,5.862-15.578
		c3.905-3.905,9.099-5.863,15.579-5.863c6.7,0,12.003,1.958,15.913,5.863c3.905,3.91,5.863,9.103,5.863,15.578v196.657
		c0,6.48-1.958,11.727-5.863,15.746c-3.91,4.021-9.213,6.03-15.913,6.03C718.853-370.748,713.659-372.758,709.754-376.778z"/>
	<path d="M859.505-376.945c-3.91-3.905-5.862-9.099-5.862-15.579v-180.911h-60.974c-13.401,0-20.102-5.915-20.102-17.756
		c0-11.836,6.7-17.756,20.102-17.756h165.165c13.4,0,20.102,5.92,20.102,17.756c0,11.841-6.701,17.756-20.102,17.756H896.86v180.911
		c0,6.48-1.958,11.674-5.863,15.579c-3.91,3.91-9.103,5.862-15.578,5.862C868.719-371.083,863.41-373.035,859.505-376.945z"/>
	<path d="M1034.722-384.483c-16.866-9.826-29.875-23.896-39.03-42.213c-9.161-18.312-13.736-39.752-13.736-64.324
		c0-24.567,4.523-45.951,13.568-64.157c9.046-18.201,22.054-32.214,39.03-42.045c16.971-9.826,36.962-14.741,59.969-14.741
		c23.001,0,42.935,4.916,59.801,14.741c16.861,9.831,29.817,23.844,38.863,42.045c9.045,18.206,13.568,39.59,13.568,64.157
		c0,24.571-4.581,46.012-13.736,64.324c-9.16,18.316-22.169,32.387-39.03,42.213c-16.866,9.831-36.685,14.741-59.466,14.741
		C1071.516-369.742,1051.582-374.652,1034.722-384.483z M1145.278-426.696c12.171-14.961,18.259-36.401,18.259-64.324
		c0-27.917-6.088-49.301-18.259-64.157c-12.176-14.851-29.095-22.279-50.756-22.279c-21.892,0-38.92,7.428-51.091,22.279
		c-12.176,14.856-18.259,36.24-18.259,64.157c0,27.922,6.083,49.363,18.259,64.324c12.171,14.966,29.199,22.446,51.091,22.446
		C1116.184-404.25,1133.103-411.73,1145.278-426.696z"/>
</g>
<circle fill="#F9C900" cx="1147.591" cy="-388.332" r="81.409"/>
<g>
	<path fill="#FFFFFF" d="M171.738,473.222c-3.911-4.02-5.863-9.266-5.863-15.746V261.488c0-6.475,1.843-11.5,5.528-15.076
		c3.686-3.569,8.763-5.359,15.244-5.359h117.592c13.621,0,20.437,5.811,20.437,17.421c0,11.391-6.816,17.086-20.437,17.086h-95.816
		v64.324h89.116c13.621,0,20.436,5.811,20.436,17.421c0,11.391-6.815,17.086-20.436,17.086h-89.116v83.085
		c0,6.48-1.9,11.727-5.695,15.746c-3.8,4.021-8.936,6.03-15.411,6.03C180.835,479.252,175.643,477.242,171.738,473.222z"/>
	<path fill="#FFFFFF" d="M361.358,473.222c-3.911-4.02-5.863-9.266-5.863-15.746V260.818c0-6.475,1.953-11.668,5.863-15.578
		c3.905-3.905,9.098-5.863,15.578-5.863c6.701,0,12.003,1.958,15.914,5.863c3.905,3.91,5.863,9.104,5.863,15.578v196.657
		c0,6.48-1.958,11.727-5.863,15.746c-3.91,4.021-9.213,6.03-15.914,6.03C370.456,479.252,365.263,477.242,361.358,473.222z"/>
	<path fill="#FFFFFF" d="M643.442,245.24c3.685,3.91,5.527,9.104,5.527,15.578v196.657c0,6.48-1.9,11.727-5.695,15.746
		c-3.8,4.021-8.71,6.03-14.741,6.03c-7.15,0-12.621-2.564-16.416-7.705L489.835,312.412v145.063c0,6.48-1.79,11.727-5.36,15.746
		c-3.575,4.021-8.491,6.03-14.741,6.03c-6.255,0-11.171-2.01-14.741-6.03c-3.575-4.02-5.36-9.266-5.36-15.746V260.818
		c0-6.475,1.895-11.668,5.695-15.578c3.795-3.905,8.821-5.863,15.076-5.863c6.92,0,12.281,2.57,16.081,7.705l121.948,158.466
		V260.818c0-6.475,1.842-11.668,5.528-15.578c3.685-3.905,8.543-5.863,14.573-5.863C634.784,239.377,639.757,241.335,643.442,245.24
		z"/>
	<path fill="#FFFFFF" d="M705.754,473.222c-3.91-4.02-5.862-9.266-5.862-15.746V260.818c0-6.475,1.952-11.668,5.862-15.578
		c3.905-3.905,9.099-5.863,15.579-5.863c6.7,0,12.003,1.958,15.913,5.863c3.905,3.91,5.863,9.104,5.863,15.578v196.657
		c0,6.48-1.958,11.727-5.863,15.746c-3.91,4.021-9.213,6.03-15.913,6.03C714.853,479.252,709.659,477.242,705.754,473.222z"/>
	<path fill="#FFFFFF" d="M855.505,473.055c-3.91-3.905-5.862-9.099-5.862-15.579V276.564h-60.974
		c-13.401,0-20.102-5.915-20.102-17.756c0-11.836,6.7-17.756,20.102-17.756h165.165c13.4,0,20.102,5.92,20.102,17.756
		c0,11.841-6.701,17.756-20.102,17.756H892.86v180.911c0,6.48-1.958,11.674-5.863,15.579c-3.91,3.91-9.103,5.862-15.578,5.862
		C864.719,478.917,859.41,476.965,855.505,473.055z"/>
	<path fill="#FFFFFF" d="M1030.722,465.517c-16.866-9.826-29.875-23.896-39.03-42.213c-9.161-18.312-13.736-39.753-13.736-64.323
		c0-24.567,4.523-45.951,13.568-64.157c9.046-18.201,22.054-32.214,39.03-42.045c16.971-9.825,36.962-14.741,59.969-14.741
		c23.001,0,42.935,4.916,59.801,14.741c16.861,9.831,29.817,23.844,38.863,42.045c9.045,18.206,13.568,39.59,13.568,64.157
		c0,24.57-4.581,46.012-13.736,64.323c-9.16,18.316-22.169,32.387-39.03,42.213c-16.866,9.831-36.685,14.741-59.466,14.741
		C1067.516,480.258,1047.582,475.348,1030.722,465.517z M1141.278,423.304c12.171-14.961,18.259-36.401,18.259-64.323
		c0-27.918-6.088-49.301-18.259-64.157c-12.176-14.851-29.095-22.278-50.756-22.278c-21.892,0-38.92,7.428-51.091,22.278
		c-12.176,14.856-18.259,36.239-18.259,64.157c0,27.922,6.083,49.362,18.259,64.323c12.171,14.966,29.199,22.446,51.091,22.446
		C1112.184,445.75,1129.103,438.27,1141.278,423.304z"/>
</g>
<circle fill="#F9C900" cx="1143.591" cy="461.668" r="81.409"/>
</svg>
